<svg version="1.2" xmlns="http://www.w3.org/2000/svg" viewBox="0 0 2983 125" width="2983" height="125">
	<title>slashes</title>
	<style>
		.s0 { fill: #000000 } 
	</style>
	<path class="s0" d="m51.3 125h-51.3l81.4-125h51.3z"/>
	<path class="s0" d="m164.5 125h-51.3l81.4-125h51.3z"/>
	<path class="s0" d="m277.7 125h-51.3l81.4-125h51.3z"/>
	<path class="s0" d="m390.9 125h-51.3l81.4-125h51.3z"/>
	<path class="s0" d="m504.1 125h-51.3l81.4-125h51.3z"/>
	<path class="s0" d="m617.3 125h-51.3l81.4-125h51.3z"/>
	<path class="s0" d="m730.5 125h-51.3l81.4-125h51.3z"/>
	<path class="s0" d="m843.8 125h-51.3l81.3-125h51.3z"/>
	<path class="s0" d="m957 125h-51.3l81.3-125h51.3z"/>
	<path class="s0" d="m1070.2 125h-51.3l81.3-125h51.3z"/>
	<path class="s0" d="m1183.4 125h-51.3l81.3-125h51.3z"/>
	<path class="s0" d="m1296.6 125h-51.3l81.4-125h51.3z"/>
	<path class="s0" d="m1409.8 125h-51.3l81.4-125h51.3z"/>
	<path class="s0" d="m1523 125h-51.3l81.4-125h51.3z"/>
	<path class="s0" d="m1636.2 125h-51.3l81.4-125h51.3z"/>
	<path class="s0" d="m1768.9 125h-51.3l81.3-125h51.3z"/>
	<path class="s0" d="m1882.1 125h-51.3l81.4-125h51.3z"/>
	<path class="s0" d="m1995.3 125h-51.3l81.4-125h51.3z"/>
	<path class="s0" d="m2108.5 125h-51.3l81.4-125h51.3z"/>
	<path class="s0" d="m2221.7 125h-51.3l81.4-125h51.3z"/>
	<path class="s0" d="m2334.9 125h-51.3l81.4-125h51.3z"/>
	<path class="s0" d="m2448.1 125h-51.3l81.4-125h51.3z"/>
	<path class="s0" d="m2561.3 125h-51.3l81.4-125h51.3z"/>
	<path class="s0" d="m2674.6 125h-51.3l81.3-125h51.3z"/>
	<path class="s0" d="m2787.8 125h-51.3l81.3-125h51.3z"/>
	<path class="s0" d="m2901 125h-51.3l81.3-125h51.3z"/>
</svg>