<?xml version="1.0" encoding="iso-8859-1"?>
<!-- Generator: Adobe Illustrator 19.0.0, SVG Export Plug-In . SVG Version: 6.00 Build 0)  -->
<svg version="1.1" id="Capa_1" xmlns="http://www.w3.org/2000/svg" xmlns:xlink="http://www.w3.org/1999/xlink" x="0px" y="0px"
	 viewBox="0 0 511.999 511.999" style="enable-background:new 0 0 511.999 511.999;" xml:space="preserve">
<path style="fill:#B3D8F4;" d="M504.468,111.831V215.37c0,20.706-16.94,37.646-37.646,37.646H45.177
	c-20.706,0-37.646-16.94-37.646-37.646V111.831c0-20.696,16.94-37.636,37.646-37.636h421.645
	C487.528,74.196,504.468,91.136,504.468,111.831z"/>
<path style="fill:#D1E7F8;" d="M504.468,111.831V215.37c0,20.706-16.94,37.646-37.646,37.646H75.974
	c-20.706,0-37.646-16.94-37.646-37.646V111.831c0-20.696,16.94-37.636,37.646-37.636h390.848
	C487.528,74.196,504.468,91.136,504.468,111.831z"/>
<path style="fill:#78B9EB;" d="M504.468,202.195v13.175c0,1.265-0.06,2.52-0.181,3.756c-0.552,5.443-2.269,10.544-4.9,15.062
	c-6.527,11.237-18.707,18.828-32.565,18.828H45.177c-13.857,0-26.038-7.591-32.565-18.828c-2.631-4.519-4.348-9.62-4.9-15.062
	c-0.12-1.235-0.181-2.49-0.181-3.756v-13.175H504.468z"/>
<g>
	<path style="fill:#1E81CE;" d="M65.782,342.416c0,5.051-2.39,9.55-6.105,12.411c-2.641,2.028-5.945,3.243-9.539,3.243
		c-8.646,0-15.655-7.009-15.655-15.655c0-8.646,7.009-15.655,15.655-15.655c3.595,0,6.899,1.215,9.539,3.243
		C63.392,332.866,65.782,337.365,65.782,342.416z"/>
	<path style="fill:#1E81CE;" d="M336.693,308.013c0,5.051-2.4,9.55-6.115,12.411c-2.641,2.028-5.945,3.243-9.539,3.243
		c-8.646,0-15.655-7.009-15.655-15.655c0-8.646,7.009-15.655,15.655-15.655c3.595,0,6.899,1.215,9.539,3.243
		C334.294,298.464,336.693,302.962,336.693,308.013z"/>
</g>
<g>
	<path style="fill:#3D9AE2;" d="M65.782,342.416c0,5.051-2.39,9.55-6.105,12.411c-3.715-2.862-6.115-7.36-6.115-12.411
		s2.4-9.55,6.115-12.411C63.392,332.866,65.782,337.365,65.782,342.416z"/>
	<path style="fill:#3D9AE2;" d="M336.693,308.013c0,5.051-2.4,9.55-6.115,12.411c-3.715-2.862-6.115-7.36-6.115-12.411
		s2.4-9.55,6.115-12.411C334.294,298.464,336.693,302.962,336.693,308.013z"/>
</g>
<path style="fill:#5AAAE7;" d="M75.974,253.016H45.177c-13.857,0-26.038-7.591-32.565-18.828c-2.631-4.519-4.348-9.62-4.9-15.062
	c-0.12-1.235-0.181-2.49-0.181-3.756v-13.175h30.797v13.175C38.329,236.076,55.269,253.016,75.974,253.016z"/>
<path d="M466.826,66.661H45.174C20.266,66.661,0,86.926,0,111.835v103.535c0,24.909,20.266,45.174,45.174,45.174h421.651
	c24.909,0,45.174-20.265,45.174-45.174V111.835C512,86.926,491.734,66.661,466.826,66.661z M466.826,245.483H45.174
	c-9.486,0-17.956-4.413-23.48-11.291H168.9c4.16,0,7.531-3.372,7.531-7.531s-3.371-7.531-7.531-7.531H15.305
	c-0.382-3.054-0.19-4.496-0.243-9.408H311.5c4.16,0,7.531-3.372,7.531-7.531c0-4.159-3.371-7.531-7.531-7.531H15.062v-82.825
	c0-16.604,13.508-30.112,30.112-30.112h421.651c16.604,0,30.112,13.508,30.112,30.112v82.825H341.624
	c-4.16,0-7.531,3.372-7.531,7.531c0,4.159,3.371,7.531,7.531,7.531h155.313c-0.052,4.828,0.142,6.334-0.243,9.408H199.025
	c-4.16,0-7.531,3.372-7.531,7.531s3.371,7.531,7.531,7.531h291.281C484.782,241.069,476.312,245.483,466.826,245.483z"/>
<circle cx="434.93" cy="169.249" r="10.353"/>
<circle cx="474.825" cy="169.249" r="10.353"/>
<path d="M478.318,329.331c-2.195-3.534-6.841-4.617-10.371-2.422l-25.174,15.643v-29.639c0-4.159-3.371-7.531-7.531-7.531
	s-7.531,3.372-7.531,7.531v29.64l-25.175-15.644c-3.531-2.197-8.177-1.112-10.371,2.422c-2.196,3.533-1.111,8.177,2.422,10.372
	l26.386,16.397l-26.386,16.397c-3.534,2.195-4.618,6.839-2.422,10.372c1.426,2.296,3.886,3.557,6.404,3.557
	c3.767,0,3.492-1.289,29.143-16.779v29.64c0,4.159,3.371,7.531,7.531,7.531s7.531-3.372,7.531-7.531v-29.639
	c25.677,15.506,25.369,16.778,29.142,16.778c7.549,0,10.406-9.937,3.981-13.929L449.509,356.1l26.386-16.397
	C479.428,337.508,480.513,332.864,478.318,329.331z"/>
<path d="M196.186,306.822c-2.195-3.534-6.841-4.616-10.371-2.422l-25.175,15.644v-29.64c0-4.159-3.371-7.531-7.531-7.531
	s-7.531,3.372-7.531,7.531v29.639L120.403,304.4c-3.531-2.196-8.177-1.111-10.371,2.422c-2.196,3.533-1.111,8.177,2.422,10.372
	l26.386,16.397l-26.386,16.397c-3.534,2.195-4.618,6.839-2.422,10.372c2.183,3.515,6.823,4.628,10.371,2.422l25.174-15.643v29.639
	c0,4.159,3.371,7.531,7.531,7.531s7.531-3.372,7.531-7.531v-29.64c25.683,15.509,25.37,16.779,29.143,16.779
	c7.549,0,10.406-9.937,3.981-13.929l-26.386-16.397l26.386-16.397C197.297,314.998,198.382,310.355,196.186,306.822z"/>
<path d="M288.29,393.835c-2.196-3.533-6.839-4.617-10.372-2.422l-10.728,6.667v-12.63c0-4.159-3.371-7.531-7.531-7.531
	c-4.16,0-7.531,3.372-7.531,7.531v12.63l-10.727-6.666c-3.534-2.197-8.178-1.111-10.372,2.422
	c-2.196,3.533-1.111,8.177,2.421,10.372l11.94,7.42l-11.94,7.42c-3.533,2.195-4.617,6.839-2.421,10.372
	c2.207,3.551,6.855,4.606,10.372,2.422l10.727-6.666v12.63c0,4.159,3.371,7.531,7.531,7.531c4.16,0,7.531-3.372,7.531-7.531v-12.631
	l10.728,6.667c3.51,2.182,8.163,1.134,10.372-2.422c2.196-3.533,1.111-8.177-2.421-10.372l-11.94-7.42l11.94-7.42
	C289.401,402.012,290.485,397.368,288.29,393.835z"/>
<path d="M50.134,319.234c-12.783,0-23.184,10.4-23.184,23.184c0,12.784,10.4,23.184,23.184,23.184s23.184-10.4,23.184-23.184
	C73.318,329.634,62.917,319.234,50.134,319.234z M50.134,350.539c-4.479,0-8.122-3.643-8.122-8.122c0-4.478,3.643-8.122,8.122-8.122
	s8.122,3.643,8.122,8.122C58.256,346.895,54.613,350.539,50.134,350.539z"/>
<path d="M321.042,284.827c-12.783,0-23.184,10.4-23.184,23.184c0,12.784,10.4,23.184,23.184,23.184
	c12.784,0,23.184-10.4,23.184-23.184C344.226,295.228,333.825,284.827,321.042,284.827z M321.042,316.134
	c-4.479,0-8.122-3.643-8.122-8.122c0-4.478,3.643-8.122,8.122-8.122c4.479,0,8.122,3.643,8.122,8.122
	C329.163,312.49,325.52,316.134,321.042,316.134z"/>
<path d="M279.167,108.937h-45.019c-4.16,0-7.531,3.372-7.531,7.531c0,4.159,3.371,7.531,7.531,7.531h45.019
	c4.16,0,7.531-3.372,7.531-7.531C286.699,112.309,283.327,108.937,279.167,108.937z"/>
<g>
</g>
<g>
</g>
<g>
</g>
<g>
</g>
<g>
</g>
<g>
</g>
<g>
</g>
<g>
</g>
<g>
</g>
<g>
</g>
<g>
</g>
<g>
</g>
<g>
</g>
<g>
</g>
<g>
</g>
</svg>
