<svg xmlns="http://www.w3.org/2000/svg" version="1.1" xmlns:xlink="http://www.w3.org/1999/xlink" width="512" height="512" x="0" y="0" viewBox="0 0 512 512" style="enable-background:new 0 0 512 512" xml:space="preserve" class=""><g><path d="M256 46.126c68.355 0 76.452.261 103.447 1.492 27.894 1.273 56.643 7.639 76.968 27.963 20.519 20.518 26.689 48.986 27.966 76.972 1.232 26.995 1.492 35.091 1.492 103.446 0 68.355-.261 76.452-1.492 103.446-1.266 27.752-7.759 56.764-27.963 76.969-20.529 20.529-48.961 26.688-76.973 27.967-26.991 1.232-35.086 1.492-103.446 1.492s-76.455-.261-103.447-1.492c-27.537-1.257-56.929-7.925-76.968-27.963-20.41-20.41-26.697-49.143-27.967-76.973-1.232-26.995-1.492-35.091-1.492-103.446 0-68.355.261-76.452 1.492-103.447 1.262-27.652 7.837-56.841 27.963-76.968 20.479-20.48 49.04-26.692 76.972-27.967 26.996-1.23 35.093-1.491 103.448-1.491M256 0c-69.525 0-78.243.294-105.549 1.54-39.588 1.807-78.869 12.813-107.484 41.426C14.245 71.688 3.345 110.893 1.54 150.452.294 177.757 0 186.474 0 256c0 69.526.294 78.243 1.54 105.549 1.804 39.525 12.87 78.927 41.426 107.483 28.687 28.688 67.972 39.624 107.485 41.427C177.757 511.706 186.475 512 256 512c69.526 0 78.243-.294 105.549-1.54 39.545-1.804 78.901-12.844 107.484-41.426 28.733-28.732 39.622-67.918 41.427-107.485C511.706 334.243 512 325.526 512 256c0-69.525-.294-78.243-1.54-105.549-1.805-39.566-12.833-78.889-41.426-107.483C440.388 14.321 400.991 3.34 361.548 1.54 334.243.294 325.526 0 256 0z" fill="#737373" opacity="1" data-original="#000000" class=""></path><path d="M256 124.54c-72.603 0-131.46 58.856-131.46 131.46 0 72.603 58.857 131.459 131.46 131.459S387.46 328.603 387.46 256c0-72.603-58.857-131.46-131.46-131.46zm0 216.793c-47.128 0-85.333-38.205-85.333-85.333s38.205-85.333 85.333-85.333 85.333 38.205 85.333 85.333-38.205 85.333-85.333 85.333z" fill="#737373" opacity="1" data-original="#000000" class=""></path><circle cx="392.654" cy="119.346" r="30.72" fill="#737373" opacity="1" data-original="#000000" class=""></circle></g></svg>