<svg id="Capa_1" enable-background="new 0 0 512.133 512.133" height="512" viewBox="0 0 512.133 512.133" width="512" xmlns="http://www.w3.org/2000/svg"><g><g><path d="m391.828 401.668c0 12.3-7.852 20.706-20.142 20.706-12.3 0-20.517-7.559-20.517-19.859 0-.983-1.598-2.288-1.335-3.426.385-1.668 1.026-3.481 1.855-5.374 4.136-9.446 2.488-20.426-4.372-28.125l15.053-25.004 28.847-14.426-7.942 39.286c-1.134 5.611-.391 11.408 2.059 16.526.413.862-.225 3.818.284 4.638 3.998 6.443 6.21 10.374 6.21 15.058z" fill="#8ccaff"/><path d="m393.947 402.28c0 12.3-9.97 22.27-22.26 22.27-12.3 0-22.26-9.97-22.26-22.27 0-.98.138-2.051.408-3.191 3.7 2.75 8.292 4.38 13.262 4.38 12.03 0 21.84-9.56 22.24-21.5.41.86.87 1.71 1.38 2.53 4 6.441 7.23 13.101 7.23 17.781z" fill="#60b8ff"/><path d="m147.22 350.28 8.415 34.139c1.662 6.784.564 13.941-3.009 19.943-1.074 1.805-2.061 3.611-2.888 5.357-1.529 3.225-.825 6.474-.825 8.889 0 10.7 6.979 15.435 17.67 15.435 10.7 0 17.281-5.22 17.281-15.92 0-1.787-.542-3.907-1.446-6.198-1.057-2.679.458-5.211.335-7.997-.31-7.006 2.23-14.013 7.142-19.335l6.641-7.209-21.082-30.118z" fill="#8ccaff"/><path d="m185.947 418.38c0 10.7-8.66 19.37-19.36 19.37-10.69 0-19.37-8.67-19.37-19.37 0-2.42.99-5.44 2.52-8.66 3.55 4.23 8.88 6.92 14.84 6.92 8.36 0 15.466-5.29 18.176-12.71.12 2.79.704 5.57 1.754 8.25.9 2.29 1.44 4.41 1.44 6.2z" fill="#60b8ff"/><g><path d="m326.858 376.587c-19.397 7.817-33.529 20.691-42.542 31.091-7.314 8.44-8.754 20.496-3.618 30.413 6.618 12.78 9.767 27.964 9.767 35.389 0 16.948-11.009 28.235-27.957 28.235-16.959 0-29.36-10.91-29.36-27.859 0-1.484-1.101-3.216-.672-5.267 1.763-8.428 6.798-20.903 12.254-31.294 5.072-9.658 4.105-21.42-2.741-29.913-7.277-9.027-18.257-18.922-32.936-22.081l55.341-85.374z" fill="#8ccaff"/></g><g><path d="m293.207 473.94c0 16.94-13.75 30.69-30.7 30.69-16.96 0-30.7-13.75-30.7-30.69 0-1.48.238-3.29.668-5.35 5.08 3.73 11.352 5.93 18.142 5.93 16.95 0 30.7-13.75 30.7-30.7 0-1.69-.3-3.79-.85-6.19.07.16.15.31.23.46 6.62 12.78 12.51 28.42 12.51 35.85z" fill="#60b8ff"/></g><path d="m422.605 79.07-1.318 137.563c0 82.838-57.223 147.106-128.729 169.623-1.43.297-3.448.784-3.106-.635l-.302-1.08 7.937-32.938c.203-.844-.161-1.723-.902-2.176l-19.815-12.095c-.438-.267-.757-.693-.89-1.189l-6.548-24.387c-.416-1.549-2.395-2.003-3.444-.79l-26.929 31.126c-.587.678-.65 1.664-.155 2.412l13.203 19.954c.399.602.441 1.373.112 2.016l-11.945 23.303c-.378.737-1.172 1.171-1.996 1.084-86.316-9.153-153.781-82.399-153.781-171.09v-6.06l7.88-7.5-7.88-7.5v-31.56h105.009l-1.792 51.713c0 27.355 26.639 57.629 53.163 57.929 4.711 1.316 9.663 2.054 14.78 2.132 33.045.499 60.08-26.23 60.08-59.153v-79.65l3.463-7.5-3.463-7.5v-46.052z" fill="#f5f8f9"/><path d="m240.376 276.79c-4.7 1.31-9.63 2.04-14.71 2.13-33.25.59-60.24-26.88-60.24-60.14v-51.63h31.47v31.56l-3.374 7.5 3.374 7.5v5.15c.001 27.36 18.3 50.9 43.48 57.93z" fill="#e8edf2"/><path d="m428.137 79.07v46.05l-6.473 6.619 6.473 8.381v79.65c0 82.84-58.85 152.2-136.95 168.45-1.43.3-2.68-1.01-2.34-2.43l.3-1.25c63.77-26.2 107.653-92.16 107.653-164.77v-140.7z" fill="#e8edf2"/><path d="m432.031 93.041-35.231 4.076h-89.126c-2.434 0-4.407-1.973-4.407-4.407v-31.684l68.42-6.651 64.67 6.651.081 27.608c0 2.433-1.973 4.407-4.407 4.407z" fill="#685e68"/><path d="m285.651 52.212v-35.898c0-4.868 3.946-8.814 8.814-8.814h102.334l49.335 3.581c4.868 0 8.814 3.946 8.814 8.814l.409 29.962c0 4.868-3.946 8.814-8.814 8.814l-49.744 2.355h-102.334c-4.867 0-8.814-3.946-8.814-8.814z" fill="#7a707a"/><path d="m440.097 61.03v31.68c0 2.43-1.97 4.41-4.4 4.41h-38.897v-36.09l22.417-7.973z" fill="#554e56"/><path d="m457.717 16.31v35.9c0 4.87-3.95 8.82-8.81 8.82h-52.107v-53.53h52.107c4.86 0 8.81 3.95 8.81 8.81z" fill="#685e68"/><path d="m200.796 166.851-35.231 4.076h-89.126c-2.434 0-4.407-1.973-4.407-4.407v-31.684l68.42-6.651 64.67 6.651.081 27.608c0 2.434-1.973 4.407-4.407 4.407z" fill="#685e68"/><path d="m54.417 126.022v-35.897c0-4.868 3.946-8.814 8.814-8.814h102.334l49.335 3.581c4.868 0 8.814 3.946 8.814 8.814l.41 29.962c0 4.868-3.946 8.814-8.814 8.814l-49.744 2.355h-102.335c-4.868-.001-8.814-3.947-8.814-8.815z" fill="#7a707a"/><path d="m208.862 134.841v31.68c0 2.43-1.97 4.41-4.4 4.41h-38.897v-36.09l22.417-7.973z" fill="#554e56"/><path d="m226.482 90.121v35.9c0 4.87-3.95 8.82-8.81 8.82h-52.107v-53.53h52.107c4.86 0 8.81 3.95 8.81 8.81z" fill="#685e68"/></g><g><path d="m414.355 287.625c-3.729-1.797-8.214-.233-10.014 3.497-5.178 10.735-11.575 20.961-19.012 30.392-11.786 14.932-25.917 27.625-41.999 37.723-13.998 8.776-29.145 15.37-45.093 19.608l6.481-26.898c.763-3.166-.604-6.462-3.384-8.159l-19.181-11.708-6.953-25.904c-.72-2.681-2.861-4.745-5.566-5.366s-5.533.304-7.349 2.402l-30.39 35.12c-2.201 2.544-2.439 6.243-.583 9.048l12.269 18.532-8.742 17.05c-8.023-.995-15.898-2.733-23.657-4.86-33.751-9.578-64.189-30.284-85.71-58.31-22.227-28.943-33.975-63.53-33.975-100.022v-6.06h24.19c4.142 0 7.5-3.358 7.5-7.5s-3.358-7.5-7.5-7.5h-24.19v-20.283h97.9v20.283h-38.04c-4.142 0-7.5 3.358-7.5 7.5s3.358 7.5 7.5 7.5h38.04v6.06c0 36.756 29.908 66.66 66.67 66.66s66.67-29.904 66.67-66.66v-22.83c0-4.142-3.358-7.5-7.5-7.5s-7.5 3.358-7.5 7.5v22.83c0 28.485-23.179 51.66-51.67 51.66s-51.67-23.175-51.67-51.66v-41.343h.062c6.565 0 11.907-5.342 11.907-11.907v-24.18h1.3c8.999 0 16.32-7.321 16.32-16.32v-35.9c0-8.993-7.321-16.31-16.32-16.31h-67.24c-4.142 0-7.5 3.358-7.5 7.5s3.358 7.5 7.5 7.5h67.24c.728 0 1.32.588 1.32 1.31v35.9c0 .728-.592 1.32-1.32 1.32h-154.439c-.722 0-1.31-.592-1.31-1.32v-35.9c0-.722.588-1.31 1.31-1.31h51.54c4.142 0 7.5-3.358 7.5-7.5s-3.358-7.5-7.5-7.5h-51.54c-8.993 0-16.31 7.317-16.31 16.31v35.9c0 8.999 7.317 16.32 16.31 16.32h1.306v24.18c0 6.565 5.342 11.907 11.907 11.907h.057v41.343c0 39.825 12.821 77.571 37.078 109.158 8.175 10.646 17.534 20.32 27.811 28.854l6.964 28.422c1.196 4.878.425 9.964-2.169 14.322-4.408 7.404-6.461 13.076-6.461 17.851 0 14.818 12.051 26.873 26.864 26.873s26.864-12.055 26.864-26.873c0-2.663-.644-5.589-1.969-8.949-2.746-6.883-.847-15.046 4.562-20.435 4.938 1.754 9.82 3.279 14.92 4.586 11.257 3.563 19.82 11.851 25.188 18.511 4.909 6.09 5.67 14.615 1.94 21.719-6.859 13.062-13.78 30.536-13.78 40.126 0 21.062 17.135 38.198 38.197 38.198s38.197-17.135 38.197-38.198c0-9.34-6.703-26.465-13.346-39.293-3.746-7.233-2.715-15.889 2.626-22.052 7.331-8.459 19.277-19.743 35.587-27.267 6.647-2.804 13.078-5.997 19.376-9.592 1.966 4.693 1.999 10.119-.127 14.975-1.947 4.444-2.893 8.23-2.893 11.574 0 16.415 13.351 29.77 29.76 29.77s29.76-13.354 29.76-29.77c0-5.566-2.734-12.678-8.359-21.74-2.536-4.085-3.41-8.918-2.462-13.608l7.598-37.587c7.633-9.885 14.24-20.538 19.628-31.707 1.8-3.731.235-8.214-3.496-10.013zm-334.823-145.285h121.834v21.087h-121.834zm97.993 272.592c.878 2.227.923 3.261.923 3.446 0 6.547-5.322 11.873-11.864 11.873s-11.864-5.326-11.864-11.873c0-.479.209-3.224 4.35-10.178 4.621-7.761 5.988-16.84 3.85-25.564l-2.738-11.176c6.848 4.346 13.979 8.229 21.339 11.614-6.527 9.289-8.142 21.346-3.996 31.858zm105.159-20.931c.725.761 1.594 1.339 2.535 1.734-2.461 2.452-4.663 4.829-6.572 7.031-9.388 10.833-11.198 26.052-4.61 38.773 7.302 14.102 11.666 27.545 11.666 32.396 0 12.792-10.406 23.198-23.197 23.198s-23.197-10.406-23.197-23.198c0-4.898 4.611-18.966 12.061-33.153 6.512-12.401 5.122-27.358-3.542-38.107-1.515-1.879-3.079-3.653-4.679-5.341 1.111-.702 2.046-1.691 2.673-2.913l13.11-25.57c1.236-2.412 1.076-5.302-.42-7.562l-11.549-17.445 17.416-20.127 4.065 15.146c.499 1.859 1.693 3.455 3.336 4.458l17.076 10.423-8.03 33.328c-.597 2.477.103 5.085 1.858 6.929zm89.003 23.049c-8.139 0-14.76-6.625-14.76-14.77 0-.55.159-2.192 1.633-5.557 4.135-9.443 3.691-20.117-.822-29.015 7.358-5.067 14.305-10.656 20.811-16.733l-2.625 12.983c-1.708 8.449-.139 17.147 4.419 24.491 5.664 9.125 6.104 12.892 6.104 13.83 0 8.145-6.622 14.771-14.76 14.771z"/><path d="m448.902 0h-154.436c-8.996 0-16.314 7.318-16.314 16.314v35.898c0 8.996 7.318 16.314 16.314 16.314h1.301v24.184c0 6.565 5.342 11.907 11.907 11.907h.062v56.653c0 4.142 3.358 7.5 7.5 7.5s7.5-3.358 7.5-7.5v-21.153h97.9v79.653c0 12.917-1.509 25.771-4.484 38.205-.964 4.028 1.52 8.076 5.548 9.04.587.141 1.174.208 1.752.208 3.39 0 6.464-2.315 7.288-5.756 3.249-13.576 4.896-27.604 4.896-41.696v-115.154h.057c6.565 0 11.907-5.342 11.907-11.907v-24.184h1.301c8.996 0 16.314-7.318 16.314-16.314v-35.898c.001-8.996-7.317-16.314-16.313-16.314zm-28.266 125.117h-97.9v-20.5h97.9zm11.965-35.5h-121.834v-21.091h121.834zm17.615-37.405c0 .725-.589 1.314-1.314 1.314h-154.436c-.725 0-1.314-.589-1.314-1.314v-35.898c0-.725.589-1.314 1.314-1.314h154.437c.725 0 1.314.589 1.314 1.314v35.898z"/><circle cx="87.607" cy="108.077" r="7.5"/><circle cx="122.837" cy="108.077" r="7.5"/><circle cx="158.067" cy="108.077" r="7.5"/><circle cx="193.297" cy="108.077" r="7.5"/><circle cx="318.837" cy="34.264" r="7.5"/><circle cx="354.067" cy="34.264" r="7.5"/><circle cx="389.297" cy="34.264" r="7.5"/><circle cx="424.527" cy="34.264" r="7.5"/></g></g></svg>