<svg id="Capa_1" enable-background="new 0 0 512 512" height="512" viewBox="0 0 512 512" width="512" xmlns="http://www.w3.org/2000/svg"><g><g><path d="m464.38 93.15v218.89c0 12.05 3.76 35.28 3.76 35.28-4.95-2.69-12.955 2.439-19.245 2.439-.86 0-1.61-.55-1.89-1.36-4.99-14.44-21.36-25.02-40.78-25.02-12.33 0-23.46 4.28-31.19 11.11-.59.52-1.41.64-2.13.32-4.82-2.17-10.38-3.4-16.28-3.4-5.65 0-8.865-5.589-13.545-3.579 1.25-5.06 1.91-10.35 1.91-15.79v-218.89z" fill="#b0dbfc"/><path d="m468.14 347.32s-6.389 2.505-6.83 4.51c-18.987 86.326-112.753 151.811-181.647 151.811-3.319 0-10.801.608-10.801.608-101.628-5.165-182.722-89.405-182.722-192.209v-12.55c6.01-5.05 14.46-11.67 23.11-10.25.84.14 1.68-.29 2.07-1.05 6.79-13.47 22.83-21.45 39.74-18.57 10.67 1.82 19.59 7.61 25.19 15.4.48.67 1.33 1.01 2.13.76 4.52-1.37 9.5-1.73 14.57-.86 8.21 1.4 15.11 9.76 19.57 15.65l-5.986 9.378c0 31.929 20.894 60.141 58.894 66.925 4.308.883 8.766 1.347 13.331 1.347 31.07 0 57.22-21.5 64.32-50.39 4.68-2.01 10.01-3.14 15.66-3.14 5.9 0 11.46 1.23 16.28 3.4.72.32 1.54.2 2.13-.32 7.73-6.83 18.86-11.11 31.19-11.11 19.42 0 35.79 10.58 40.78 25.02.28.81 1.03 1.36 1.89 1.36 6.291 0 12.181 1.59 17.131 4.28z" fill="#e88f77"/><path d="m471.38 93.15v218.89c0 12.05-1.11 23.84-3.24 35.28 0 0-11.026.68-17.316.68-.86 0-1.61-.55-1.89-1.36-.38-1.09-.634-7.12-1.144-8.16 1.19-8.65 1.8-17.47 1.8-26.44v-218.89z" fill="#8ccaff"/><path d="m468.14 347.32c-16.64 89.33-95.23 157.18-189.38 157.18-3.65 0-7.28-.1-10.89-.31 89.26-4.99 162.49-71.01 178.48-156.87.55-2.93 1.02-5.87 1.44-8.84.51 1.04.95 2.11 1.33 3.2.28.81 1.03 1.36 1.89 1.36 6.29 0 12.18 1.59 17.13 4.28z" fill="#e08369"/><path d="m204.276 220.442.847 65.223 7.397 14.905c-4.46-5.89-11.36-10.25-19.57-11.65-5.07-.87-10.05-.51-14.57.86-.8.25-1.65-.09-2.13-.76-5.6-7.79-14.52-13.58-25.19-15.4-16.91-2.88-32.95 5.1-39.74 18.57-.39.76-1.23 1.19-2.07 1.05-8.65-1.42-17.1 1.2-23.11 6.25v-59.86c0-1.66-1.35-3-3-3h-44.61v-126.28h52.805l14.095 2c59.14 0 98.846 49.002 98.846 108.092z" fill="#f5f8f9"/><path d="m265.76 376.93c-4.2.85-8.55 1.29-13 1.29-36.52 0-66.24-29.69-66.24-66.18v-23.57s7.115-7.975 9.285-7.605c8.21 1.4 12.255 13.815 16.715 19.705v11.47c0 32.04 22.92 58.85 53.24 64.89z" fill="#e08369"/><path d="m212.52 217.35v83.22c-4.46-5.89-11.36-10.25-19.57-11.65-2.17-.37-4.32-.52-6.43-.45v-71.12c0-59.09-47.95-107-107.09-107h26c59.14 0 107.09 47.91 107.09 107z" fill="#e8edf2"/><g><path d="m47.903 101.966v143.049c0 2.763-2.24 5.002-5.002 5.002h-30.399c-2.763 0-5.002-2.24-5.002-5.002v-143.049c0-2.763 2.24-5.002 5.002-5.002h30.399c2.762 0 5.002 2.239 5.002 5.002z" fill="#7a707a"/></g><g fill="#8ccaff"><ellipse cx="387.763" cy="215.613" rx="15.013" ry="15"/><path d="m439.807 157.821c0 8.284-6.721 15-15.013 15-8.291 0-15.013-6.716-15.013-15s6.721-15 15.013-15c8.291 0 15.013 6.715 15.013 15z"/><path d="m442.001 273.144c0 8.284-6.721 15-15.013 15-8.291 0-15.013-6.716-15.013-15s6.721-15 15.013-15 15.013 6.716 15.013 15z"/></g><path d="m346.532 443.532c0 12.356-10.025 22.373-22.391 22.373s-22.392-10.017-22.392-22.373 10.025-22.373 22.392-22.373 22.391 10.017 22.391 22.373z" fill="#d37562"/><ellipse cx="159.404" cy="365.79" fill="#d37562" rx="15.378" ry="15.365"/><g><ellipse cx="402.76" cy="368.733" fill="#d37562" rx="15.378" ry="15.365"/></g><path d="m476.491 109.043-26.897 5.047h-112.347c-2.706 0-4.9-2.239-4.9-5v-35.918l90.844-7.152 56.88 7.152 1.319 30.871c.001 2.762-2.193 5-4.899 5z" fill="#685e68"/><path d="m484.031 73.168v35.92c0 2.76-2.185 5-4.9 5h-29.537v-40.92l17.219-7.148z" fill="#554e56"/><path d="m449.594 6.818h26.558v66.35h-26.558z" fill="#554e56"/><path d="m312.747 63.172v-46.354c0-5.523 4.388-10 9.8-10h127.047l38.919 5.743c5.412 0 9.8 4.477 9.8 10l.899 38.565c0 5.523-4.388 10-9.8 10l-39.819 2.046h-127.046c-5.412 0-9.8-4.477-9.8-10z" fill="#7a707a"/><path d="m503.63 16.818v46.35c0 5.53-4.381 10-9.8 10h-44.237v-66.35h44.237c5.42 0 9.8 4.48 9.8 10z" fill="#685e68"/></g><g><path d="m494.641 0h-172.9c-9.572 0-17.36 7.788-17.36 17.36v45.74c0 9.572 7.788 17.36 17.36 17.36h2.357v27.94c0 6.854 5.577 12.431 12.432 12.431h.961v191.209c0 32.356-26.347 58.68-58.73 58.68-32.39 0-58.74-26.323-58.74-58.68v-94.69c0-26.439-9.239-52.234-26.017-72.633-2.633-3.2-7.359-3.659-10.557-1.029-3.199 2.632-3.66 7.357-1.029 10.557 14.575 17.722 22.603 40.133 22.603 63.105v68.859c-3.958-2.518-8.45-4.283-13.271-5.106-4.299-.732-8.629-.689-12.867.129-.228.044-.361-.009-.375-.015-6.527-7.897-15.743-13.206-25.949-14.948-17.436-2.973-34.561 4.691-43.619 19.535-.011.013-.062.064-.219.058-5.198-.165-10.374.956-15.08 3.115v-52.347c0-4.143-3.357-7.5-7.5-7.5h-30.741v-111.28h50.029c18.521 0 36.588 5.114 52.248 14.79 1.229.76 2.59 1.121 3.936 1.121 2.513 0 4.969-1.264 6.387-3.559 2.178-3.524 1.086-8.146-2.438-10.322-18.031-11.142-38.825-17.03-60.133-17.03h-50.029v-.88c0-6.897-5.607-12.51-12.5-12.51h-30.4c-6.893 0-12.5 5.612-12.5 12.51v80.221c0 4.143 3.357 7.5 7.5 7.5s7.5-3.357 7.5-7.5v-77.73h25.4v138.06h-25.4v-25.331c0-4.143-3.357-7.5-7.5-7.5s-7.5 3.357-7.5 7.5v27.819c0 6.897 5.607 12.51 12.5 12.51h30.4c6.893 0 12.5-5.612 12.5-12.51v-.88h23.24v67.91c0 110.259 89.773 199.961 200.12 199.961 35.125 0 69.693-9.264 99.968-26.789 3.585-2.075 4.809-6.664 2.733-10.249s-6.665-4.808-10.249-2.733c-27.993 16.206-59.963 24.771-92.452 24.771-102.075 0-185.12-82.973-185.12-184.96v-4.899c3.676-4.08 9.098-6.462 14.611-6.287 5.488.161 10.663-2.601 13.491-7.235 5.749-9.422 17.126-14.47 28.292-12.562 6.666 1.137 12.671 4.588 16.909 9.716 3.534 4.278 9.199 6.269 14.783 5.188 2.463-.475 4.983-.499 7.499-.07 7.288 1.245 13.267 6.148 15.794 12.869v3.282c0 40.627 33.08 73.68 73.74 73.68 32.843 0 60.729-21.575 70.237-51.284 3.527-1.466 7.457-2.241 11.461-2.241 3.257 0 6.421.495 9.405 1.471 5.464 1.785 11.431.861 15.955-2.475 6.145-4.531 14.105-7.026 22.414-7.026 13.616 0 25.734 6.595 30.872 16.8 2.724 5.411 7.776 9.066 13.516 9.777 2.33.289 4.617.897 6.761 1.777-8.696 38.668-29.726 73.891-60.579 100.205-3.151 2.688-3.527 7.422-.839 10.573 1.483 1.739 3.59 2.633 5.71 2.633 1.721 0 3.451-.589 4.863-1.794 44.704-38.128 70.343-93.565 70.343-152.096v-191.211h.969c6.854 0 12.432-5.576 12.432-12.431v-27.94h2.36c9.572 0 17.359-7.788 17.359-17.36v-45.74c.002-9.572-7.785-17.36-17.357-17.36zm-30.761 312.04c0 8.596-.603 17.119-1.775 25.518-2.483-.802-5.049-1.382-7.641-1.703-.748-.093-1.5-.719-1.961-1.635-7.662-15.221-25.039-25.056-44.271-25.056-11.489 0-22.611 3.535-31.316 9.954-.63.465-1.523.573-2.392.289-4.491-1.469-9.224-2.213-14.066-2.213-2.773 0-5.53.266-8.226.758.156-1.953.258-3.92.258-5.912v-191.209h111.39zm33.12-248.94c0 1.302-1.059 2.36-2.359 2.36h-55.36c-4.143 0-7.5 3.357-7.5 7.5s3.357 7.5 7.5 7.5h38v25.371h-138.183v-25.371h65.183c4.143 0 7.5-3.357 7.5-7.5s-3.357-7.5-7.5-7.5h-82.54c-1.302 0-2.36-1.059-2.36-2.36v-45.74c0-1.302 1.059-2.36 2.36-2.36h172.9c1.301 0 2.359 1.059 2.359 2.36z"/><path d="m349.027 28.508c-4.143 0-7.5 3.357-7.5 7.5v8.447c0 4.143 3.357 7.5 7.5 7.5s7.5-3.357 7.5-7.5v-8.447c0-4.143-3.357-7.5-7.5-7.5z"/><path d="m388.469 28.508c-4.143 0-7.5 3.357-7.5 7.5v8.447c0 4.143 3.357 7.5 7.5 7.5s7.5-3.357 7.5-7.5v-8.447c0-4.143-3.358-7.5-7.5-7.5z"/><path d="m427.909 28.508c-4.143 0-7.5 3.357-7.5 7.5v8.447c0 4.143 3.357 7.5 7.5 7.5s7.5-3.357 7.5-7.5v-8.447c0-4.143-3.357-7.5-7.5-7.5z"/><path d="m467.35 28.508c-4.143 0-7.5 3.357-7.5 7.5v8.447c0 4.143 3.357 7.5 7.5 7.5s7.5-3.357 7.5-7.5v-8.447c0-4.143-3.358-7.5-7.5-7.5z"/><path d="m387.763 238.112c12.413 0 22.513-10.094 22.513-22.5s-10.1-22.5-22.513-22.5-22.513 10.094-22.513 22.5 10.1 22.5 22.513 22.5zm0-30c4.143 0 7.513 3.364 7.513 7.5s-3.37 7.5-7.513 7.5-7.513-3.364-7.513-7.5 3.37-7.5 7.513-7.5z"/><path d="m424.794 180.32c12.413 0 22.513-10.094 22.513-22.5s-10.1-22.5-22.513-22.5-22.513 10.094-22.513 22.5 10.1 22.5 22.513 22.5zm0-30c4.143 0 7.513 3.364 7.513 7.5s-3.37 7.5-7.513 7.5-7.513-3.364-7.513-7.5 3.37-7.5 7.513-7.5z"/><path d="m426.988 250.644c-12.413 0-22.513 10.094-22.513 22.5s10.1 22.5 22.513 22.5 22.513-10.094 22.513-22.5-10.1-22.5-22.513-22.5zm0 30c-4.143 0-7.513-3.364-7.513-7.5s3.37-7.5 7.513-7.5 7.513 3.364 7.513 7.5-3.37 7.5-7.513 7.5z"/><path d="m294.249 443.532c0 16.472 13.409 29.873 29.892 29.873s29.892-13.401 29.892-29.873-13.409-29.872-29.892-29.872-29.892 13.401-29.892 29.872zm44.783 0c0 8.201-6.681 14.873-14.892 14.873s-14.892-6.672-14.892-14.873c0-8.2 6.681-14.872 14.892-14.872s14.892 6.672 14.892 14.872z"/><path d="m159.403 388.654c12.615 0 22.878-10.257 22.878-22.864 0-12.608-10.263-22.865-22.878-22.865-12.614 0-22.877 10.257-22.877 22.865 0 12.607 10.263 22.864 22.877 22.864zm0-30.729c4.344 0 7.878 3.528 7.878 7.865 0 4.336-3.534 7.864-7.878 7.864s-7.877-3.528-7.877-7.864c0-4.337 3.534-7.865 7.877-7.865z"/><path d="m402.761 391.598c12.614 0 22.877-10.257 22.877-22.864 0-12.608-10.263-22.865-22.877-22.865-12.615 0-22.878 10.257-22.878 22.865 0 12.607 10.263 22.864 22.878 22.864zm0-30.73c4.344 0 7.877 3.528 7.877 7.865 0 4.336-3.533 7.864-7.877 7.864s-7.878-3.528-7.878-7.864c0-4.337 3.534-7.865 7.878-7.865z"/><path d="m152.987 312.668c-1.889-3.686-6.41-5.142-10.096-3.254l-17.187 8.808c-3.686 1.89-5.143 6.409-3.254 10.096 1.328 2.591 3.956 4.081 6.681 4.081 1.151 0 2.32-.267 3.415-.827l17.187-8.808c3.686-1.89 5.143-6.41 3.254-10.096z"/><path d="m185.876 435.035 18.112 6.701c.858.317 1.737.468 2.602.468 3.049 0 5.915-1.873 7.035-4.899 1.438-3.885-.547-8.199-4.432-9.637l-18.112-6.701c-3.887-1.437-8.199.548-9.637 4.432-1.437 3.884.547 8.199 4.432 9.636z"/><path d="m383.737 398.059-18.112-6.701c-3.885-1.436-8.198.548-9.637 4.432-1.438 3.885.547 8.199 4.432 9.637l18.112 6.701c.858.317 1.737.468 2.602.468 3.049 0 5.915-1.873 7.035-4.899 1.437-3.886-.547-8.201-4.432-9.638z"/><path d="m276.103 411.99c-3.468-2.271-8.114-1.3-10.383 2.166l-10.573 16.149c-2.27 3.466-1.299 8.114 2.166 10.383 1.268.83 2.692 1.227 4.102 1.227 2.445 0 4.842-1.194 6.281-3.393l10.573-16.149c2.269-3.466 1.298-8.114-2.166-10.383z"/></g></g></svg>