<svg height="511pt" viewBox="0 -16 511.99991 511" width="511pt" xmlns="http://www.w3.org/2000/svg"><path d="m467.636719 308.632812-100.136719 67.015626-29.84375-1.675782-1.167969-11.746094c-1.738281-17.484374-15.199219-31.515624-32.597656-33.980468l-105.871094-9.277344c-10.375-1.46875-32.199219-13.003906-49.308593-22.820312-16.21875-9.300782-34.546876-14.3125-53.246094-14.46875l-53.828125-.445313v131.589844l152.363281 57.699219c5.757812 1.625 11.804688 2.113281 17.714844 1.175781.035156-.003907.070312-.007813.105468-.015625l153.394532-22.109375c11.816406-1.886719 22.925781-6.867188 32.199218-14.429688l99.144532-89.164062c8.894531-7.902344 10.546875-21.179688 3.851562-31.015625-7.324218-10.765625-21.96875-13.59375-32.773437-6.332032zm0 0" fill="#fae0c1"/><path d="m500.410156 314.964844c-.664062-.976563-1.386718-1.882813-2.164062-2.726563l-100.832032 74.046875c-9.273437 7.5625-20.378906 12.539063-32.199218 14.425782l-153.394532 22.113281c-.035156.003906-.070312.007812-.105468.015625-5.910156.933594-11.957032.445312-17.714844-1.179688l-152.363281-57.695312v48.859375l152.363281 57.699219c5.757812 1.625 11.804688 2.113281 17.714844 1.175781.039062-.003907.070312-.007813.105468-.015625l153.394532-22.109375c11.816406-1.886719 22.925781-6.867188 32.199218-14.429688l99.144532-89.164062c8.894531-7.902344 10.542968-21.179688 3.851562-31.015625zm0 0" fill="#efd0af"/><path d="m81.136719 458.242188h-63.292969c-5.71875 0-10.355469-4.636719-10.355469-10.355469v-193.246094c0-5.71875 4.636719-10.355469 10.355469-10.355469h63.292969c5.71875 0 10.355469 4.636719 10.355469 10.355469v193.246094c0 5.71875-4.636719 10.355469-10.355469 10.355469zm0 0" fill="#f43b45"/><path d="m81.136719 244.285156h-38.417969v213.957032h38.417969c5.71875 0 10.355469-4.636719 10.355469-10.355469v-193.246094c0-5.71875-4.636719-10.355469-10.355469-10.355469zm0 0" fill="#cf3735"/><path d="m384.421875 75.75c-25.011719-10.382812-42.484375-33.894531-44.875-61.28125-.328125-3.746094-3.511719-6.597656-7.269531-6.574219l-76.054688.445313-1.542968.007812-76.054688.445313c-3.804688.023437-6.910156 2.980469-7.203125 6.769531-2.109375 27.394531-19.320313 51.078125-44.210937 61.726562-4.21875 1.800782-6.75 6.152344-6.273438 10.714844 3.492188 33.382813 23.824219 147.0625 134.667969 198.191406.460937.214844.96875.324219 1.476562.320313.507813-.003906 1.011719-.117187 1.472657-.335937 110.230468-52.421876 129.230468-166.324219 132.332031-199.753907.429687-4.597656-2.203125-8.90625-6.464844-10.675781zm0 0" fill="#75cff2"/><path d="m384.421875 75.75c-25.011719-10.382812-42.484375-33.894531-44.875-61.28125-.328125-3.746094-3.511719-6.597656-7.269531-6.574219l-41.867188.246094c.050782 30.03125 18.207032 56.402344 45.097656 67.585937 4.273438 1.78125 6.945313 6.085938 6.519532 10.699219-2.875 30.992188-19.429688 131.15625-109.683594 187.367188 7.277344 4.441406 15.011719 8.597656 23.261719 12.40625.464843.210937.96875.320312 1.476562.316406.507813 0 1.011719-.117187 1.472657-.335937 110.230468-52.421876 129.234374-166.324219 132.335937-199.753907.425781-4.597656-2.207031-8.90625-6.46875-10.675781zm0 0" fill="#53b4e4"/><path d="m254.945312 254.546875c-75.847656-41.164063-97.84375-117.519531-104.148437-154.984375-.269531-1.605469.441406-3.21875 1.824219-4.078125 20.605468-12.777344 35.652344-32.613281 42.445312-55.746094.5-1.707031 2.070313-2.871093 3.847656-2.882812l113.394532-.664063c1.777344-.011718 3.359375 1.136719 3.878906 2.835938 7.0625 23.046875 22.339844 42.707031 43.097656 55.246094 1.394532.839843 2.125 2.445312 1.875 4.054687-5.863281 37.539063-26.953125 114.148437-102.320312 156.195313-1.203125.671874-2.683594.679687-3.894532.023437zm0 0" fill="#e1e0de"/><path d="m359.285156 94.273438c-20.753906-12.539063-36.035156-32.199219-43.097656-55.246094-.519531-1.699219-2.101562-2.847656-3.878906-2.835938l-45.722656.265625c6.6875 24.15625 22.320312 44.820313 43.84375 57.820313 1.390624.835937 2.121093 2.4375 1.871093 4.042968-5.242187 33.550782-22.652343 98.324219-80.117187 141.730469 6.992187 5.179688 14.558594 10.046875 22.761718 14.496094 1.210938.65625 2.6875.648437 3.894532-.023437 75.363281-42.046876 96.457031-118.65625 102.320312-156.199219.25-1.605469-.480468-3.210938-1.875-4.050781zm0 0" fill="#d6d6d6"/><path d="m67.148438 410.703125c0 10.515625-8.523438 19.035156-19.035157 19.035156-10.515625 0-19.039062-8.519531-19.039062-19.035156 0-10.511719 8.523437-19.035156 19.039062-19.035156 10.511719 0 19.035157 8.523437 19.035157 19.035156zm0 0" fill="#ededed"/><path d="m247.359375 178.722656c3.335937 3.167969 8.882813 2.527344 11.417969-1.296875l49.917968-75.335937c2.289063-3.453125 1.34375-8.109375-2.109374-10.398438-3.449219-2.285156-8.105469-1.339844-10.394532 2.109375l-44.984375 67.890625-24.996093-23.734375c-3.003907-2.851562-7.75-2.726562-10.605469.277344-2.851563 3.003906-2.726563 7.75.277343 10.601563-.003906 0 31.449219 29.863281 31.476563 29.886718zm0 0"/><path d="m252.476562 293.117188c1.433594.65625 3.019532 1.003906 4.597657 1.003906h.0625c1.605469-.007813 3.214843-.375 4.652343-1.0625 114.046876-54.238282 133.375-171.261719 136.578126-205.835938.734374-7.894531-3.710938-15.246094-11.058594-18.292968-22.703125-9.425782-38.136719-30.503907-40.277344-55.007813-.660156-7.542969-7.105469-13.421875-14.699219-13.421875h-.089843l-153.648438.902344c-7.746094.042968-14.039062 5.929687-14.632812 13.691406-1.890626 24.511719-17.097657 45.742188-39.6875 55.40625-7.273438 3.109375-11.609376 10.5-10.78125 18.390625 3.609374 34.535156 24.308593 151.328125 138.984374 204.226563zm-122.304687-208.828126c27.699219-11.84375 46.359375-37.847656 48.730469-67.890624l153.207031-.898438c2.722656 29.976562 21.648437 55.742188 49.449219 67.28125 1.242187.519531 1.996094 1.746094 1.875 3.058594-3.007813 32.402344-21.003906 141.65625-126.386719 192.855468-105.988281-49.953124-125.25-158.996093-128.640625-191.363281-.136719-1.308593.574219-2.53125 1.765625-3.042969zm0 0"/><path d="m148.898438 125.867188c.90625 3.335937 5.136718 6.390624 9.207031 5.269531 3.992187-1.101563 6.355469-5.207031 5.269531-9.203125-1.910156-7.039063-3.515625-14.175782-4.777344-21.246094 20.375-13.277344 35.496094-33.09375 42.914063-56.238281l108.3125-.636719c7.6875 23.050781 23.039062 42.695312 43.570312 55.730469-1.175781 7.089843-2.699219 14.25-4.53125 21.316406-1.039062 4.011719 1.371094 8.105469 5.378907 9.144531 4.015624 1.039063 8.105468-1.371094 9.144531-5.382812 2.148437-8.296875 3.898437-16.71875 5.195312-25.03125.726563-4.644532-1.398437-9.210938-5.40625-11.632813-19.125-11.550781-33.261719-29.671875-39.804687-51.023437-1.472656-4.800782-6-8.136719-11.023438-8.136719h-.070312l-113.398438.664063c-5.054687.03125-9.578125 3.433593-10.996094 8.269531-6.289062 21.425781-20.214843 39.710937-39.203124 51.488281-3.980469 2.464844-6.046876 7.054688-5.269532 11.695312 1.398438 8.292969 3.242188 16.6875 5.488282 24.953126zm0 0"/><path d="m348.226562 148.105469c-3.828124-1.585938-8.210937.242187-9.792968 4.070312-17.332032 42.007813-44.769532 73.945313-81.574219 94.964844-37.089844-20.613281-64.925781-52.28125-82.746094-94.15625-1.625-3.808594-6.03125-5.582031-9.839843-3.960937-3.8125 1.621093-5.585938 6.027343-3.964844 9.835937 19.449218 45.695313 50.089844 80.144531 91.070312 102.382813 1.726563.941406 3.617188 1.40625 5.503906 1.40625 1.933594 0 3.863282-.488282 5.621094-1.46875 40.671875-22.691407 70.882813-57.441407 89.796875-103.285157 1.582031-3.828125-.242187-8.210937-4.074219-9.789062zm0 0"/><path d="m48.121094 384.273438c-14.628906 0-26.535156 11.902343-26.535156 26.535156 0 14.632812 11.90625 26.535156 26.535156 26.535156 14.632812 0 26.539062-11.902344 26.539062-26.535156 0-14.632813-11.902344-26.535156-26.539062-26.535156zm0 38.070312c-6.359375 0-11.535156-5.171875-11.535156-11.535156 0-6.359375 5.175781-11.535156 11.535156-11.535156 6.363281 0 11.539062 5.175781 11.539062 11.535156 0 6.363281-5.175781 11.535156-11.539062 11.535156zm0 0"/><path d="m506.621094 310.847656c-9.613282-14.125-28.96875-17.867187-43.144532-8.34375l-98.046874 65.621094-20.929688-1.175781-.535156-5.359375c-2.085938-20.988282-18.128906-37.710938-39.011719-40.664063-.132813-.019531-.261719-.035156-.394531-.046875l-105.648438-9.257812c-3.574218-.558594-15.015625-3.84375-46.453125-21.875-16.339843-9.371094-34.75-14.660156-53.453125-15.378906v-19.621094c0-9.847656-8.007812-17.855469-17.855468-17.855469h-63.292969c-9.84375 0-17.855469 8.011719-17.855469 17.855469v193.246094c0 9.84375 8.011719 17.855468 17.855469 17.855468h63.292969c9.84375 0 17.855468-8.011718 17.855468-17.855468v-5.324219l92.351563 34.972656c.203125.078125 7.703125 2.882813 21.492187 1.582031.039063-.003906 153.449219-22.121094 153.449219-22.121094.039063-.003906.074219-.011718.113281-.019531 13.109375-2.089843 25.472656-7.632812 35.757813-16.019531.09375-.078125.183593-.15625.273437-.234375l99.105469-89.136719c11.679687-10.371094 13.863281-27.929687 5.074219-40.84375zm-15.070313 29.660156-99 89.042969c-8.195312 6.644531-18.03125 11.039063-28.453125 12.710938l-153.335937 22.105469c-.035157.003906-.085938.011718-.132813.019531-.023437.003906-.050781.007812-.074218.011719-4.585938.722656-9.363282.417968-14.203126-.90625l-97.347656-36.863282v-85.652344c0-4.144531-3.359375-7.5-7.5-7.5-4.144531 0-7.5 3.355469-7.5 7.5v107.015626c0 1.574218-1.28125 2.855468-2.855468 2.855468h-63.292969c-1.574219 0-2.855469-1.28125-2.855469-2.855468v-193.246094c0-1.574219 1.28125-2.855469 2.855469-2.855469h63.292969c1.574218 0 2.855468 1.28125 2.855468 2.855469v52.351562c0 4.144532 3.359375 7.5 7.5 7.5 4.144532 0 7.5-3.359375 7.5-7.5v-17.714844c16.089844.710938 31.917969 5.304688 45.988282 13.378907 37.917968 21.746093 48.507812 23.246093 51.988281 23.738281.132812.019531.261719.03125.394531.046875l105.660156 9.257813c13.929688 2.058593 24.609375 13.246093 26.003906 27.269531l.398438 3.996093-141.457031 8.734376c-.097657-.007813-.195313-.015626-.28125-.023438-4.585938-.414062-8.726563-2.582031-11.667969-6.105469-2.652344-3.183593-7.382812-3.613281-10.5625-.957031-3.183594 2.652344-3.613281 7.382812-.957031 10.5625 5.503906 6.601562 13.269531 10.550781 21.851562 11.441406 4.632813.484375 151.324219-9.132812 151.324219-9.132812l29.40625 1.652344c1.625.09375 3.238281-.351563 4.589844-1.257813l100.148437-67.023437c7.355469-4.941407 17.398438-3.003907 22.386719 4.324218 4.558594 6.703125 3.425781 15.8125-2.667969 21.222656zm0 0"/></svg>